<?xml version="1.0" encoding="UTF-8"?><svg xmlns="http://www.w3.org/2000/svg" viewBox="0 0 1879 301.53"><defs><style>.t{fill:#231f20;opacity:.05;}.u{fill:none;stroke:#f37226;stroke-miterlimit:10;stroke-width:5px;}</style></defs><g id="a"><rect class="t" x="3.27" y="242.2" width="1874" height="55.43"/><rect class="t" x="78.71" y="94.5" width="1721.87" height="33.7"/></g><g id="b"><polygon id="c" class="u" points="120.07 2.5 78.71 94.5 78.71 128.2 259.48 128.2 259.48 94.5 296.24 2.5 120.07 2.5"/><polygon id="d" class="u" points="757.35 2.5 745.1 94.5 745.1 128.2 259.48 128.2 259.48 94.5 296.24 2.5 757.35 2.5"/><polygon id="e" class="u" points="939.5 2.5 939.5 128.2 745.1 128.2 745.1 94.5 757.35 2.5 939.5 2.5"/><polygon id="f" class="u" points="1125.01 2.5 1135.73 94.5 1135.73 128.2 939.5 128.2 939.5 2.5 1125.01 2.5"/><polygon id="g" class="u" points="1255.22 2.5 1276.16 94.5 1275.14 128.2 1135.73 128.2 1135.73 94.5 1125.01 2.5 1255.22 2.5"/><polygon id="h" class="u" points="1382.37 2.5 1408.41 94.5 1408.41 128.2 1275.14 128.2 1275.14 94.5 1255.22 2.5 1382.37 2.5"/><polygon id="i" class="u" points="1575.39 2.5 1609.1 94.5 1609.1 128.2 1408.41 128.2 1408.41 94.5 1382.37 2.5 1575.39 2.5"/><polygon id="j" class="u" points="1766.88 2.5 1800.59 94.5 1800.59 128.2 1609.1 128.2 1609.1 94.5 1575.39 2.5 1766.88 2.5"/><polygon id="k" class="u" points="1876.5 242.07 1825.1 128.2 1423.73 128.2 1449.78 242.07 1449.78 297.5 1876.5 297.5 1876.5 242.07"/><polygon id="l" class="u" points="1298.12 297.5 1449.78 297.5 1449.78 242.07 1423.73 128.2 1275.14 128.2 1298.12 242.07 1298.12 297.5"/><polygon id="m" class="u" points="1146.46 297.5 1298.12 297.5 1298.12 242.07 1275.14 128.2 1135.73 128.2 1146.46 242.07 1146.46 297.5"/><polygon id="n" class="u" points="939.5 297.5 1146.46 297.5 1146.46 242.07 1135.73 128.2 939.5 128.2 939.5 242.07 939.5 297.5"/><polygon id="o" class="u" points="731.82 297.5 939.5 297.5 939.5 128.2 745.1 128.2 731.82 242.07 731.82 297.5"/><polygon id="p" class="u" points="577.61 297.5 731.82 297.5 731.82 242.07 745.1 128.2 593.95 128.2 577.61 242.07 577.61 297.5"/><polygon id="q" class="u" points="356.91 299.01 577.61 297.5 577.61 242.07 593.95 128.2 389.69 128.2 356.91 242.07 356.91 299.01"/><polygon id="r" class="u" points="201.78 297.5 356.91 299.01 356.91 242.07 389.69 128.2 246.71 128.2 201.78 242.07 201.78 297.5"/><polygon id="s" class="u" points="2.5 297.5 201.78 297.5 201.78 242.07 246.71 128.2 53.69 128.2 2.5 242.07 2.5 297.5"/></g></svg>