<?xml version="1.0" encoding="UTF-8"?><svg id="a" xmlns="http://www.w3.org/2000/svg" viewBox="0 0 13 13"><path id="b" d="M10.97,8.13h-.81c-.22,0-.41,.18-.41,.41h0v2.84H1.62V3.25h3.66c.22,0,.41-.18,.41-.41h0v-.81c0-.22-.18-.41-.41-.41H1.22C.55,1.62,0,2.17,0,2.84h0V11.78c0,.67,.55,1.22,1.22,1.22H10.16c.67,0,1.22-.55,1.22-1.22v-3.25c0-.22-.18-.41-.41-.41h0ZM12.39,0h-3.25c-.34,0-.61,.28-.61,.61,0,.16,.06,.31,.18,.43l.91,.91L3.43,8.13c-.24,.24-.24,.62,0,.86h0l.57,.58c.24,.24,.62,.24,.86,0h0L11.05,3.38l.91,.91c.24,.24,.62,.24,.86,0,.12-.12,.18-.27,.18-.44V.61C13,.27,12.73,0,12.39,0h0Z" style="fill:#fff;"/></svg>