<?xml version="1.0" encoding="utf-8"?>
<!-- Generator: Adobe Illustrator 26.0.1, SVG Export Plug-In . SVG Version: 6.00 Build 0)  -->
<svg version="1.1" id="Layer_1" xmlns="http://www.w3.org/2000/svg" xmlns:xlink="http://www.w3.org/1999/xlink" x="0px" y="0px"
	 viewBox="0 0 200 43.6" style="enable-background:new 0 0 200 43.6;" xml:space="preserve">
<style type="text/css">
	.st0{fill:#FFFFFF;}
</style>
<g id="logo_kyberna" transform="translate(-19.707 -13.392)">
	<path id="Path_1" class="st0" d="M57.4,22.1c0-1.3-0.4-2.6-1.2-3.7l-4.3-5l0,21.1c0,0.2,0,0.3,0,0.5c0,1.1-0.4,1.3-1,0.4
		c0,0,0-0.1,0-0.1c-0.2-0.3-0.4-0.5-0.6-0.8c-0.9-0.8-1.9-1.6-3-2.3c-1.7-1.1-3.4-2.3-4.9-3.7c-1.6-1.5-2.7-3.3-3.4-5.4l-6.5,5.3
		c0.6,2.3,1.8,4.3,3.4,6c1.5,1.5,3.3,2.8,5.3,3.7c1.3,0.5,2.6,1.3,3.6,2.4c0.7,1,1.2,2.1,1.5,3.3h10.6l-3.9-5.2
		c-0.5-0.8-0.3-1.2,0.7-1.2h18.7l-5.4-6.4h-9.5V22.1z"/>
	<path id="Path_2" class="st0" d="M66.6,56.6L61,49.2H41.6c-0.4-1.4-1.1-2.6-1.9-3.8c-1-1.2-2.2-2.1-3.6-2.6c-2-0.8-3.7-2-5.3-3.5
		c-1.8-1.8-3-4.1-3.4-6.6l0-0.1l-7.8,6.3c0.9,2.4,2.2,4.6,4,6.5c1.5,1.7,3.2,3.1,5.2,4.1c1.5,0.7,2.9,1.7,3.9,2.9
		c1,1.3,1.8,2.7,2.4,4.2L66.6,56.6L66.6,56.6L66.6,56.6z"/>
	<g id="Group_1" transform="translate(76.111 22.162)">
		<path id="Path_3" class="st0" d="M4.1,4.1C3.7,3.6,3.5,3.4,3,3.4c-0.5,0-0.9,0.3-1,0.8c0,0,0,0,0,0c0,0.2,0.1,0.5,0.3,0.6
			c0.3,0.2,0.7,0.4,1.1,0.5c1.1,0.5,1.6,1.1,1.6,2c0,1.2-1,2.2-2.2,2.2c-0.7,0-1.4-0.3-1.8-0.9C0.8,8.4,0.7,8,0.7,7.6l1.1-0.2
			c0,0.3,0.1,0.5,0.2,0.8c0.3,0.5,1,0.7,1.6,0.4C3.8,8.2,4,7.9,4,7.5c0-0.4-0.2-0.7-0.5-0.9C3.2,6.3,2.8,6.2,2.4,6
			C1.4,5.6,1,5.1,1,4.3c0.1-1.1,1-1.9,2-1.8c0,0,0,0,0,0c0.8,0,1.5,0.4,1.9,1.2L4.1,4.1z"/>
		<path id="Path_4" class="st0" d="M8.8,9.5h-1V3.6H6.1v-1h4.2v1H8.8V9.5z"/>
		<path id="Path_5" class="st0" d="M16.2,9.5h-1.3l-2-2.8h-0.2v2.8h-1V2.6h1.2c0.6-0.1,1.3,0.1,1.8,0.4c0.5,0.4,0.8,1,0.8,1.6
			c0,0.9-0.6,1.7-1.5,1.9L16.2,9.5z M13.4,2l-1.6-1.4L12.5,0l0.9,0.8L14.3,0L15,0.5L13.4,2z M13.1,5.7c0.4,0,0.7-0.1,1-0.2
			c0.3-0.2,0.4-0.5,0.4-0.9c0-0.3-0.2-0.6-0.4-0.8c-0.3-0.2-0.7-0.3-1-0.2h-0.4v2.2L13.1,5.7z"/>
		<path id="Path_6" class="st0" d="M18.7,3.6v1.7h2.7v1h-2.7v2.3h2.8v1h-3.8V2.6h3.8v1L18.7,3.6L18.7,3.6z"/>
		<path id="Path_7" class="st0" d="M23.2,2.6h1.4c0.9-0.1,1.8,0.2,2.6,0.7c0.9,0.7,1.4,1.7,1.3,2.8c0,1.1-0.5,2.2-1.4,2.8
			c-0.7,0.5-1.6,0.8-2.5,0.7h-1.4L23.2,2.6L23.2,2.6z M24.7,8.5C25.4,8.6,26,8.4,26.5,8c0.6-0.5,1-1.2,0.9-2c0-0.8-0.3-1.5-0.9-2
			c-0.5-0.4-1.2-0.5-1.8-0.5h-0.5v4.9H24.7z"/>
		<path id="Path_8" class="st0" d="M30.2,2.1l5,5.3V2.6h1v7.3l-5-5.3v4.8h-1V2.1z"/>
		<path id="Path_9" class="st0" d="M38.9,2l-0.5-0.4l1.4-1.4l0.8,0.6L38.9,2z M39.4,9.5h-1V2.6h1L39.4,9.5z"/>
		<path id="Path_10" class="st0" d="M47.6,4.1c-0.3-0.5-0.6-0.7-1-0.7c-0.5,0-1,0.3-1,0.8c0,0,0,0,0,0c0,0.2,0.1,0.5,0.3,0.6
			c0.3,0.2,0.7,0.4,1.1,0.5c1.1,0.5,1.6,1.1,1.6,2c0,1.2-1,2.2-2.2,2.2c-0.7,0-1.4-0.3-1.8-0.9c-0.2-0.3-0.4-0.7-0.4-1.1l1.1-0.2
			c0,0.3,0.1,0.5,0.2,0.8c0.3,0.5,1,0.7,1.6,0.4c0.3-0.2,0.5-0.6,0.5-1c0-0.4-0.2-0.7-0.5-0.9c-0.4-0.2-0.8-0.4-1.2-0.5
			c-1-0.4-1.4-1-1.4-1.7c0.1-1.1,1-1.9,2-1.8c0,0,0,0,0,0c0.8,0,1.5,0.4,1.9,1.2L47.6,4.1z M46.5,2l-1.6-1.4L45.6,0l0.9,0.8L47.4,0
			l0.7,0.5L46.5,2z"/>
		<path id="Path_11" class="st0" d="M54,2.6h1.4l-3.1,3.1l3.1,3.8H54l-2.5-3.1l-0.2,0.2v2.9h-1V2.6h1v2.8L54,2.6z"/>
		<path id="Path_12" class="st0" d="M63.2,6c0,2-1.6,3.6-3.6,3.6c0,0,0,0,0,0c-1,0-2-0.5-2.7-1.2C56.3,7.7,56,6.9,56,6
			c0-2,1.6-3.6,3.6-3.6C61.6,2.4,63.2,4,63.2,6L63.2,6L63.2,6z M57,6c0,0.7,0.3,1.4,0.8,1.9c0.5,0.5,1.1,0.7,1.8,0.7
			c1.4,0,2.6-1.1,2.7-2.5c0-1.4-1.1-2.6-2.5-2.7S57.1,4.5,57,6C57,6,57,6,57,6z"/>
		<path id="Path_13" class="st0" d="M66,8.5h2v1h-3.1V2.6h1V8.5z"/>
		<path id="Path_14" class="st0" d="M70.5,7.8l-0.8,1.7h-1.1L72,2.2l3.3,7.3h-1.1l-0.7-1.7H70.5z M72,4.5l-1.1,2.3H73L72,4.5z"/>
		<path id="Path_15" class="st0" d="M5,17.5v4.4H4v-0.5C3.7,21.8,3.2,22,2.7,22c-1.3-0.1-2.2-1.3-2.1-2.5c0.1-1.1,1-1.9,2-2.1
			c0.5,0,1,0.2,1.4,0.6v-0.5H5L5,17.5z M1.6,19.7c0.1,0.7,0.7,1.2,1.4,1.1c0.7-0.1,1.2-0.7,1.1-1.4c-0.1-0.6-0.6-1.1-1.2-1.1
			C2.1,18.4,1.6,19,1.6,19.7C1.6,19.7,1.6,19.7,1.6,19.7z"/>
		<path id="Path_16" class="st0" d="M12.1,19.8l1.9-4.8h1.1l-3.1,7.4l-3-7.4h1.1L12.1,19.8z"/>
		<path id="Path_17" class="st0" d="M15.6,15h1.2l1.6,2.8L20,15h1.2l-2.3,3.9v3h-1v-3L15.6,15z"/>
		<path id="Path_18" class="st0" d="M25.5,16.5c-0.3-0.5-0.6-0.7-1-0.7c-0.5,0-0.9,0.3-1,0.8c0,0,0,0,0,0c0,0.2,0.1,0.5,0.3,0.6
			c0.3,0.2,0.7,0.4,1.1,0.5c1.1,0.5,1.6,1.1,1.6,2c0,1.2-1,2.2-2.2,2.2c-0.7,0-1.4-0.3-1.8-0.9c-0.2-0.3-0.4-0.7-0.4-1.1l1.1-0.2
			c0,0.3,0.1,0.5,0.2,0.8c0.3,0.5,1,0.7,1.6,0.4c0.3-0.2,0.5-0.6,0.5-1c0-0.4-0.2-0.7-0.5-0.9c-0.4-0.2-0.8-0.4-1.2-0.5
			c-1-0.4-1.4-1-1.4-1.7c0.1-1.1,1-1.9,2-1.8c0,0,0,0,0,0c0.8,0,1.5,0.4,1.9,1.2L25.5,16.5z M24.4,14.4L22.8,13l0.7-0.5l0.9,0.8
			l0.9-0.8L26,13L24.4,14.4z"/>
		<path id="Path_19" class="st0" d="M31.2,16.5c-0.3-0.5-0.6-0.7-1-0.7c-0.5,0-1,0.3-1,0.8c0,0,0,0,0,0c0,0.2,0.1,0.5,0.3,0.6
			c0.3,0.2,0.7,0.4,1.1,0.5c1.1,0.5,1.6,1.1,1.6,2c0,1.2-1,2.2-2.2,2.2c-0.7,0-1.4-0.3-1.8-0.9c-0.2-0.3-0.4-0.7-0.4-1.1l1.1-0.2
			c0,0.3,0.1,0.5,0.2,0.8c0.3,0.5,1,0.7,1.6,0.4c0.3-0.2,0.5-0.6,0.5-1c0-0.4-0.2-0.7-0.5-0.9c-0.4-0.2-0.8-0.4-1.2-0.5
			c-1-0.4-1.4-1-1.4-1.7c0.1-1.1,1-1.9,2-1.8c0,0,0,0,0,0c0.8,0,1.5,0.4,1.9,1.2L31.2,16.5z M30.1,14.4L28.5,13l0.7-0.5l0.9,0.8
			l0.9-0.8l0.7,0.5L30.1,14.4z"/>
		<path id="Path_20" class="st0" d="M34.4,14.4L33.9,14l1.4-1.4l0.8,0.6L34.4,14.4z M34.9,21.9h-1V15h1V21.9z"/>
		<path id="Path_21" class="st0" d="M46.9,18.5c0,2-1.6,3.6-3.6,3.6c0,0,0,0,0,0c-1,0-2-0.5-2.7-1.2c-0.6-0.7-0.9-1.5-0.9-2.4
			c0-2,1.6-3.6,3.6-3.6S46.9,16.5,46.9,18.5L46.9,18.5z M40.7,18.4c0,0.7,0.3,1.4,0.8,1.9c0.5,0.5,1.1,0.7,1.8,0.7
			c1.4,0,2.6-1.1,2.7-2.5c0-1.4-1.1-2.6-2.5-2.7C41.9,15.8,40.7,16.9,40.7,18.4C40.7,18.4,40.7,18.4,40.7,18.4z"/>
		<path id="Path_22" class="st0" d="M48.6,15H50c0.9-0.1,1.8,0.2,2.6,0.7c0.9,0.7,1.4,1.7,1.3,2.8c0,1.1-0.5,2.2-1.4,2.8
			c-0.7,0.5-1.6,0.8-2.5,0.7h-1.4L48.6,15L48.6,15z M50.1,20.9c0.7,0.1,1.3-0.1,1.8-0.5c0.6-0.5,1-1.2,0.9-2c0-0.8-0.3-1.5-0.9-2
			c-0.5-0.4-1.2-0.5-1.8-0.5h-0.5v4.9L50.1,20.9z"/>
		<path id="Path_23" class="st0" d="M55.6,15h1c0.6-0.1,1.2,0.1,1.7,0.4c0.5,0.4,0.8,1,0.8,1.6c0,0.5-0.2,0.9-0.6,1.3
			c0.7,0.3,1.2,1,1.2,1.7c0,0.6-0.3,1.1-0.7,1.5c-0.5,0.4-1.2,0.6-1.8,0.5h-1.6L55.6,15L55.6,15z M57,18c0.3,0,0.6-0.1,0.8-0.2
			c0.2-0.2,0.3-0.5,0.3-0.8c0-0.5-0.4-1-0.9-1c-0.1,0-0.1,0-0.2,0h-0.4v2L57,18z M57.3,20.9c0.3,0,0.7,0,1-0.2
			c0.3-0.2,0.4-0.5,0.4-0.8c0-0.3-0.2-0.6-0.4-0.8c-0.3-0.2-0.7-0.3-1.1-0.2h-0.5v2.1L57.3,20.9z"/>
		<path id="Path_24" class="st0" d="M68.3,18.5c0,2-1.6,3.6-3.6,3.6c0,0,0,0,0,0c-1,0-2-0.5-2.7-1.2c-0.6-0.7-0.9-1.5-0.9-2.4
			c0-2,1.6-3.6,3.6-3.6S68.3,16.5,68.3,18.5L68.3,18.5L68.3,18.5z M62.1,18.4c0,0.7,0.3,1.4,0.8,1.9c0.5,0.5,1.1,0.7,1.8,0.7
			c1.4,0,2.6-1.1,2.7-2.5c0-1.4-1.1-2.6-2.5-2.7S62.2,16.9,62.1,18.4C62.1,18.4,62.1,18.4,62.1,18.4z"/>
		<path id="Path_25" class="st0" d="M74.5,21.9h-1.3l-2-2.8h-0.2v2.8h-1V15h1.2c0.6-0.1,1.3,0.1,1.8,0.4c0.5,0.4,0.8,1,0.8,1.6
			c0,0.9-0.6,1.7-1.5,1.9L74.5,21.9z M71.4,18.2c0.4,0,0.7-0.1,1-0.2c0.3-0.2,0.4-0.5,0.4-0.9c0-0.3-0.2-0.6-0.4-0.8
			c-0.3-0.2-0.7-0.3-1-0.2h-0.4v2.2L71.4,18.2z"/>
		<path id="Path_26" class="st0" d="M75.9,14.5l5,5.3V15h1v7.3l-5-5.2v4.8h-1L75.9,14.5z"/>
		<path id="Path_27" class="st0" d="M85.2,20.2l-0.8,1.7h-1.1l3.4-7.3l3.3,7.3h-1.1l-0.7-1.7L85.2,20.2z M86.7,16.9l-1.1,2.3h2.1
			L86.7,16.9z M86.5,14.4L86,14l1.4-1.4l0.9,0.6L86.5,14.4z"/>
		<path id="Path_28" class="st0" d="M97.3,16.5c-0.3-0.5-0.6-0.7-1-0.7c-0.5,0-1,0.3-1,0.8c0,0,0,0,0,0c0,0.2,0.1,0.5,0.3,0.6
			c0.3,0.2,0.7,0.4,1.1,0.5c1.1,0.5,1.6,1.1,1.6,2c0,1.2-1,2.2-2.2,2.2c-0.7,0-1.4-0.3-1.8-0.9c-0.2-0.3-0.4-0.7-0.4-1.1l1.1-0.2
			c0,0.3,0.1,0.5,0.2,0.8c0.3,0.5,1,0.7,1.6,0.4c0.3-0.2,0.5-0.6,0.5-1c0-0.4-0.2-0.7-0.5-0.9c-0.4-0.2-0.8-0.4-1.2-0.5
			c-1-0.4-1.4-1-1.4-1.7c0.1-1.1,1-1.9,2-1.8c0,0,0,0,0,0c0.8,0,1.5,0.4,1.9,1.2L97.3,16.5z M96.3,14.4l-1.6-1.4l0.7-0.5l0.9,0.8
			l0.9-0.8l0.7,0.5L96.3,14.4z"/>
		<path id="Path_29" class="st0" d="M103.7,15h1.4l-3.1,3.1l3.1,3.8h-1.4l-2.5-3.1l-0.2,0.2v2.9h-1V15h1v2.8L103.7,15z"/>
		<path id="Path_30" class="st0" d="M113,18.5c0,2-1.6,3.6-3.6,3.6c0,0,0,0,0,0c-1,0-2-0.5-2.7-1.2c-0.6-0.7-0.9-1.5-0.9-2.4
			c0-2,1.6-3.6,3.6-3.6S113,16.5,113,18.5L113,18.5z M106.8,18.4c0,0.7,0.3,1.4,0.8,1.9c0.5,0.5,1.1,0.7,1.8,0.7
			c1.4,0,2.6-1.1,2.7-2.5c0-1.4-1.1-2.6-2.5-2.7C108,15.8,106.8,16.9,106.8,18.4C106.8,18.4,106.8,18.4,106.8,18.4z"/>
		<path id="Path_31" class="st0" d="M115.7,20.9h2v1h-3.1V15h1L115.7,20.9L115.7,20.9z"/>
		<path id="Path_32" class="st0" d="M120.2,20.2l-0.8,1.7h-1.1l3.4-7.3l3.3,7.3h-1.1l-0.7-1.7H120.2z M121.7,16.9l-1.1,2.3h2.1
			L121.7,16.9z"/>
		<path id="Path_33" class="st0" d="M1.9,32.6l-0.8,1.7H0L3.4,27l3.3,7.3H5.6l-0.7-1.7L1.9,32.6z M3.4,29.3l-1.1,2.3h2.1L3.4,29.3z"
			/>
		<path id="Path_34" class="st0" d="M9,34.3H8v-6.9h1.2c0.7-0.1,1.4,0.1,1.9,0.4c0.5,0.4,0.8,1,0.8,1.6c0,0.5-0.2,1.1-0.6,1.5
			c-0.5,0.4-1.1,0.6-1.7,0.6H9V34.3L9,34.3L9,34.3z M9.4,30.5c0.4,0,0.8-0.1,1.1-0.3c0.2-0.2,0.4-0.5,0.4-0.8c0-0.3-0.1-0.6-0.4-0.8
			c-0.3-0.2-0.7-0.3-1.1-0.2H9v2.2L9.4,30.5L9.4,30.5z"/>
		<path id="Path_35" class="st0" d="M14.4,33.3h2v1h-3.1v-6.9h1V33.3z"/>
		<path id="Path_36" class="st0" d="M18.8,34.3h-1v-6.9h1V34.3z"/>
		<path id="Path_37" class="st0" d="M24.6,27.4H26l-3.1,3.1l3.1,3.8h-1.4l-2.5-3.1L22,31.5v2.9h-1v-6.9h1v2.8L24.6,27.4z"/>
		<path id="Path_38" class="st0" d="M33.9,30.9c0,2-1.6,3.6-3.6,3.6c0,0,0,0,0,0c-1,0-2-0.5-2.7-1.2c-0.6-0.7-0.9-1.5-0.9-2.4
			c0-2,1.6-3.6,3.6-3.6C32.3,27.3,33.9,28.9,33.9,30.9L33.9,30.9L33.9,30.9z M27.7,30.8c0,0.7,0.3,1.4,0.8,1.9
			c0.5,0.5,1.1,0.7,1.8,0.7c1.4,0,2.6-1.1,2.7-2.5c0-1.4-1.1-2.6-2.5-2.7C28.9,28.2,27.7,29.4,27.7,30.8
			C27.7,30.8,27.7,30.8,27.7,30.8z"/>
		<path id="Path_39" class="st0" d="M37.6,32.2l1.9-4.8h1.1l-3.1,7.4l-3-7.4h1.1L37.6,32.2z"/>
		<path id="Path_40" class="st0" d="M42.4,32.6l-0.8,1.7h-1.1L44,27l3.3,7.3h-1.1l-0.7-1.7L42.4,32.6z M43.9,29.3l-1.1,2.3H45
			L43.9,29.3z"/>
		<path id="Path_41" class="st0" d="M48.5,26.9l5,5.3v-4.8h1v7.3l-5-5.3v4.8h-1L48.5,26.9L48.5,26.9z"/>
		<path id="Path_42" class="st0" d="M57.7,28.4V30h2.7v1h-2.7v2.3h2.8v1h-3.8v-6.9h3.8v1L57.7,28.4L57.7,28.4z M58.3,26.8l-0.5-0.4
			l1.4-1.4l0.9,0.6L58.3,26.8z"/>
		<path id="Path_43" class="st0" d="M69,27.4h1.4l-3.1,3.1l3.1,3.8H69l-2.5-3.1l-0.2,0.2v2.9h-1v-6.9h1v2.8L69,27.4z"/>
		<path id="Path_44" class="st0" d="M70.9,27.4h1.2l1.6,2.8l1.6-2.8h1.2l-2.3,3.9v3h-1v-3L70.9,27.4z"/>
		<path id="Path_45" class="st0" d="M77.6,27.4h1c0.6-0.1,1.2,0.1,1.7,0.4c0.5,0.4,0.8,1,0.8,1.6c0,0.5-0.2,0.9-0.6,1.3
			c0.7,0.3,1.2,1,1.2,1.7c0,0.6-0.3,1.1-0.7,1.5c-0.5,0.4-1.2,0.6-1.8,0.5h-1.6L77.6,27.4L77.6,27.4z M79,30.4
			c0.3,0,0.6-0.1,0.8-0.2c0.2-0.2,0.3-0.5,0.3-0.8c0-0.5-0.4-1-0.9-1c-0.1,0-0.1,0-0.2,0h-0.4v2L79,30.4L79,30.4z M79.3,33.3
			c0.3,0,0.7,0,1-0.2c0.3-0.2,0.4-0.5,0.4-0.8c0-0.3-0.2-0.6-0.4-0.8c-0.3-0.2-0.7-0.3-1.1-0.2h-0.5v2.1L79.3,33.3z"/>
		<path id="Path_46" class="st0" d="M84.5,28.4V30h2.7v1h-2.7v2.3h2.8v1h-3.8v-6.9h3.8v1L84.5,28.4L84.5,28.4z"/>
		<path id="Path_47" class="st0" d="M93.5,34.3h-1.3l-2-2.8h-0.2v2.8h-1v-6.9h1.2c0.6-0.1,1.3,0.1,1.8,0.4c0.5,0.4,0.8,1,0.8,1.6
			c0,0.9-0.6,1.7-1.5,1.9L93.5,34.3z M90.4,30.6c0.4,0,0.7-0.1,1-0.2c0.3-0.2,0.4-0.5,0.4-0.9c0-0.3-0.2-0.6-0.4-0.8
			c-0.3-0.2-0.7-0.3-1-0.2h-0.4v2.2L90.4,30.6L90.4,30.6z"/>
		<path id="Path_48" class="st0" d="M95,26.9l5,5.3v-4.8h1v7.3l-5-5.3v4.8h-1V26.9z"/>
		<path id="Path_49" class="st0" d="M104.1,28.4V30h2.7v1h-2.7v2.3h2.8v1h-3.8v-6.9h3.8v1L104.1,28.4L104.1,28.4z"/>
		<path id="Path_50" class="st0" d="M110.6,34.3h-1v-5.9H108v-1h4.2v1h-1.6L110.6,34.3L110.6,34.3z"/>
		<path id="Path_51" class="st0" d="M114.6,34.3h-1v-6.9h1V34.3z"/>
		<path id="Path_52" class="st0" d="M120.4,27.4h1.4l-3.1,3.1l3.1,3.8h-1.4l-2.5-3.1l-0.2,0.2v2.9h-1v-6.9h1v2.8L120.4,27.4z"/>
		<path id="Path_53" class="st0" d="M122.3,27.4h1.2l1.6,2.8l1.6-2.8h1.2l-2.3,3.9v3h-1v-3L122.3,27.4z"/>
		<path id="Path_54" class="st0" d="M131.5,32.3c-0.1-0.2-0.2-0.3-0.3-0.3c-0.1,0-0.2,0.1-0.2,0.2c0,0,0,0,0,0
			c0,0.1,0.1,0.2,0.4,0.3c0.7,0.3,0.8,0.5,0.8,0.9c0,0.5-0.4,0.9-1,0.9c0,0,0,0,0,0c-0.4,0-0.8-0.3-1-0.7l0.5-0.2
			c0.1,0.3,0.3,0.4,0.4,0.4c0.2,0,0.3-0.1,0.3-0.3c0,0,0,0,0,0c0-0.2,0-0.2-0.6-0.5c-0.4-0.2-0.5-0.4-0.5-0.7c0-0.5,0.4-0.8,0.9-0.8
			c0.3,0,0.6,0.2,0.8,0.5L131.5,32.3z"/>
		<path id="Path_55" class="st0" d="M133.9,34c0,0.2-0.2,0.4-0.4,0.4c0,0,0,0,0,0c-0.2,0-0.4-0.2-0.4-0.4c0-0.2,0.2-0.4,0.4-0.4
			C133.7,33.6,133.9,33.8,133.9,34z"/>
		<path id="Path_56" class="st0" d="M135.7,31.6v0.2c0.1-0.2,0.4-0.3,0.6-0.3c0.2,0,0.4,0.1,0.5,0.2l-0.3,0.6
			c-0.1-0.1-0.2-0.1-0.4-0.1c-0.4,0-0.5,0.2-0.5,0.8v1.4h-0.6v-2.7L135.7,31.6L135.7,31.6z"/>
		<path id="Path_57" class="st0" d="M138,34c0,0.2-0.2,0.4-0.4,0.4c0,0,0,0,0,0c-0.2,0-0.4-0.2-0.4-0.4c0-0.2,0.2-0.4,0.4-0.4
			C137.8,33.6,138,33.8,138,34z"/>
		<path id="Path_58" class="st0" d="M141.9,32.9c0,0.8-0.6,1.5-1.4,1.5c-0.8,0-1.5-0.6-1.5-1.4c0-0.8,0.6-1.5,1.4-1.5c0,0,0,0,0,0
			C141.2,31.5,141.8,32.1,141.9,32.9C141.9,32.9,141.9,32.9,141.9,32.9z M139.6,32.9c0,0.4,0.4,0.8,0.9,0.8s0.8-0.4,0.8-0.9
			c0-0.4-0.4-0.8-0.8-0.8C140,32.1,139.6,32.4,139.6,32.9C139.6,32.9,139.6,32.9,139.6,32.9z"/>
		<path id="Path_59" class="st0" d="M143.6,34c0,0.2-0.2,0.4-0.4,0.4c0,0,0,0,0,0c-0.2,0-0.4-0.2-0.4-0.4c0-0.2,0.2-0.4,0.4-0.4
			c0,0,0,0,0,0C143.4,33.6,143.6,33.8,143.6,34z"/>
	</g>
</g>
</svg>
