<svg xmlns="http://www.w3.org/2000/svg" viewBox="0 0 1879 301.53"><g id="Layer_3" data-name="Layer 3"><rect x="3.27" y="242.2" width="1874" height="55.43" style="fill:#f4f4f5"/><rect x="78.71" y="94.5" width="1721.87" height="33.7" style="fill:#f4f4f5"/></g><g id="Rooms"><polygon id="Museum" points="120.07 2.5 78.71 94.5 78.71 128.2 259.48 128.2 259.48 94.5 296.25 2.5 120.07 2.5" style="fill:none;stroke:#f37226;stroke-miterlimit:10;stroke-width:5px"/><polygon id="T302" points="757.35 2.5 745.1 94.5 745.1 128.2 259.48 128.2 259.48 94.5 296.25 2.5 757.35 2.5" style="fill:none;stroke:#f37226;stroke-miterlimit:10;stroke-width:5px"/><polygon id="Zelba" points="939.5 2.5 939.5 128.2 745.1 128.2 745.1 94.5 757.35 2.5 939.5 2.5" style="fill:none;stroke:#f37226;stroke-miterlimit:10;stroke-width:5px"/><polygon id="Elektro" points="1125.01 2.5 1135.73 94.5 1135.73 128.2 939.5 128.2 939.5 2.5 1125.01 2.5" style="fill:none;stroke:#f37226;stroke-miterlimit:10;stroke-width:5px"/><polygon id="Helpdesk" points="1255.22 2.5 1276.16 94.5 1275.14 128.2 1135.73 128.2 1135.73 94.5 1125.01 2.5 1255.22 2.5" style="fill:none;stroke:#f37226;stroke-miterlimit:10;stroke-width:5px"/><polygon id="Loskot" points="1382.37 2.5 1408.41 94.5 1408.41 128.2 1275.14 128.2 1275.14 94.5 1255.22 2.5 1382.37 2.5" style="fill:none;stroke:#f37226;stroke-miterlimit:10;stroke-width:5px"/><polygon id="Aut" points="1575.39 2.5 1609.1 94.5 1609.1 128.2 1408.41 128.2 1408.41 94.5 1382.37 2.5 1575.39 2.5" style="fill:none;stroke:#f37226;stroke-miterlimit:10;stroke-width:5px"/><polygon id="WC" points="1766.88 2.5 1800.59 94.5 1800.59 128.2 1609.1 128.2 1609.1 94.5 1575.39 2.5 1766.88 2.5" style="fill:none;stroke:#f37226;stroke-miterlimit:10;stroke-width:5px"/><polygon id="T320" points="1876.5 242.07 1825.1 128.2 1423.73 128.2 1449.78 242.07 1449.78 297.5 1876.5 297.5 1876.5 242.07" style="fill:none;stroke:#f37226;stroke-miterlimit:10;stroke-width:5px"/><polygon id="Penc" points="1298.12 297.5 1449.78 297.5 1449.78 242.07 1423.73 128.2 1275.14 128.2 1298.12 242.07 1298.12 297.5" style="fill:none;stroke:#f37226;stroke-miterlimit:10;stroke-width:5px"/><polygon id="Trnka" points="1146.46 297.5 1298.12 297.5 1298.12 242.07 1275.14 128.2 1135.73 128.2 1146.46 242.07 1146.46 297.5" style="fill:none;stroke:#f37226;stroke-miterlimit:10;stroke-width:5px"/><polygon id="Grafika" points="939.5 297.5 1146.46 297.5 1146.46 242.07 1135.73 128.2 939.5 128.2 939.5 242.07 939.5 297.5" style="fill:none;stroke:#f37226;stroke-miterlimit:10;stroke-width:5px"/><polygon id="Reditel" points="731.82 297.5 939.5 297.5 939.5 128.2 745.1 128.2 731.82 242.07 731.82 297.5" style="fill:none;stroke:#f37226;stroke-miterlimit:10;stroke-width:5px"/><polygon id="Reditelna" points="577.61 297.5 731.82 297.5 731.82 242.07 745.1 128.2 593.95 128.2 577.61 242.07 577.61 297.5" style="fill:none;stroke:#f37226;stroke-miterlimit:10;stroke-width:5px"/><polygon id="Sborovna" points="356.9 299.01 577.61 297.5 577.61 242.07 593.95 128.2 389.69 128.2 356.9 242.07 356.9 299.01" style="fill:none;stroke:#f37226;stroke-miterlimit:10;stroke-width:5px"/><polygon id="Hlousek" points="201.78 297.5 356.9 299.01 356.9 242.07 389.69 128.2 246.71 128.2 201.78 242.07 201.78 297.5" style="fill:none;stroke:#f37226;stroke-miterlimit:10;stroke-width:5px"/><polygon id="Schodiste3" points="2.5 297.5 201.78 297.5 201.78 242.07 246.71 128.2 53.69 128.2 2.5 242.07 2.5 297.5" style="fill:none;stroke:#f37226;stroke-miterlimit:10;stroke-width:5px"/></g></svg>